{"title":"Survival Island (2002) DVDRip GoGo","uid":5562474,"size":739765934,"categoryP":"video","categoryS":"movies","magnet":"?xt=urn:btih:8a92078826d2595c9805e12e31a6c3c5b1fb8be1&amp;dn=Survival+Island+%282002%29+DVDRip+GoGo&amp;tr=udp%3A%2F%2Ftracker.openbittorrent.com%3A80&amp;tr=udp%3A%2F%2Fopen.demonii.com%3A1337&amp;tr=udp%3A%2F%2Ftracker.coppersurfer.tk%3A6969&amp;tr=udp%3A%2F%2Fexodus.desync.com%3A6969","seeders":1,"leechers":0,"uploader":"fasamoo","files":-1,"time":1273876187,"description":"[img]http://briefcase.pathfinder.gr/download/540731/numberone.gif[/img]\n[img]http://briefcase.pathfinder.gr/download/538827/seed.gif[/img]\n\n[img]http://www.33smiley.com/smiley5/work/5.gif[/img]\n\n\n[img]http://moviecritter.com/static/images/cover/pinata-survival-island.jpg[/img]\n\n\nPlot:Teens trapped on an island are haunted by a demon hidden inside...a pinata.\n\n[IMG]http://i981.photobucket.com/albums/ae294/fasamoo/SurvivalIsland2002DVDRipGoGo_201-5.jpg[/IMG]\n[IMG]http://i981.photobucket.com/albums/ae294/fasamoo/SurvivalIsland2002DVDRipGoGo_201-4.jpg[/IMG]\n[IMG]http://i981.photobucket.com/albums/ae294/fasamoo/SurvivalIsland2002DVDRipGoGo_201-3.jpg[/IMG]\n[IMG]http://i981.photobucket.com/albums/ae294/fasamoo/SurvivalIsland2002DVDRipGoGo_201-2.jpg[/IMG]\n[IMG]http://i981.photobucket.com/albums/ae294/fasamoo/SurvivalIsland2002DVDRipGoGo_201-1.jpg[/IMG]\n[IMG]http://i981.photobucket.com/albums/ae294/fasamoo/SurvivalIsland2002DVDRipGoGo_201005.jpg[/IMG]\n\nGeneral\nComplete name                    : Survival Island (2002) DVDRip GoGoSurvival Island (2002) DVDRip GoGo.avi\nLanguage                         : English\nSubtitles                        : None\nIMDB Link                        : http://www.imdb.com/title/tt0201844/\nFormat                           : AVI\nFormat/Info                      : Audio Video Interleave\nFormat profile                   : OpenDML\nFile size                        : 705 MiB\nDuration                         : 1h 24mn\nOverall bit rate                 : 1 165 Kbps\nWriting application              : AVI-Mux GUI 1.17.8.3\n\nVideo\nID                               : 0\nFormat                           : MPEG-4 Visual\nFormat profile                   : Advanced Simple@L5\nFormat settings, BVOP            : Yes\nFormat settings, QPel            : No\nFormat settings, GMC             : No warppoints\nFormat settings, Matrix          : Custom\nCodec ID                         : XVID\nCodec ID/Hint                    : XviD\nDuration                         : 1h 24mn\nBit rate                         : 1 028 Kbps\nWidth                            : 496 pixels\nHeight                           : 352 pixels\nDisplay aspect ratio             : 1.409\nFrame rate                       : 23.976 fps\nResolution                       : 8 bits\nColorimetry                      : 4:2:0\nScan type                        : Progressive\nBits/(Pixel*Frame)               : 0.246\nStream size                      : 623 MiB (88%)\nWriting library                  : XviD 1.2.1 (UTC 2008-12-04)\n\nAudio\nID                               : 1\nFormat                           : MPEG Audio\nFormat version                   : Version 1\nFormat profile                   : Layer 3\nMode                             : Joint stereo\nFormat_Settings_ModeExtension    : MS Stereo\nCodec ID                         : 55\nCodec ID/Hint                    : MP3\nDuration                         : 1h 24mn\nBit rate mode                    : Constant\nBit rate                         : 128 Kbps\nChannel(s)                       : 2 channels\nSampling rate                    : 48.0 KHz\nStream size                      : 77.5 MiB (11%)\nAlignment                        : Aligned on interleaves\nInterleave, duration             : 24 ms (0.58 video frame)\nInterleave, preload duration     : 912 ms\nWriting library                  : LAME3.98.2","torrent":{"xt":"urn:btih:8a92078826d2595c9805e12e31a6c3c5b1fb8be1","amp;dn":"Survival+Island+%282002%29+DVDRip+GoGo","amp;tr":["udp%3A%2F%2Ftracker.openbittorrent.com%3A80","udp%3A%2F%2Fopen.demonii.com%3A1337","udp%3A%2F%2Ftracker.coppersurfer.tk%3A6969","udp%3A%2F%2Fexodus.desync.com%3A6969"],"infoHash":"8a92078826d2595c9805e12e31a6c3c5b1fb8be1","infoHashBuffer":{"type":"Buffer","data":[138,146,7,136,38,210,89,92,152,5,225,46,49,166,195,197,177,251,139,225]},"announce":[],"urlList":[]}}